<?xml version="1.0" standalone="no"?>
<!DOCTYPE svg PUBLIC "-//W3C//DTD SVG 20010904//EN"
 "http://www.w3.org/TR/2001/REC-SVG-20010904/DTD/svg10.dtd">
<svg version="1.0" xmlns="http://www.w3.org/2000/svg"
 width="1600.000000pt" height="1600.000000pt" viewBox="0 0 1600.000000 1600.000000"
 preserveAspectRatio="xMidYMid meet">
<metadata>
Created by potrace 1.14, written by Peter Selinger 2001-2017
</metadata>
<g transform="translate(0.000000,1600.000000) scale(0.100000,-0.100000)"
fill="#000000" stroke="none">
<path d="M7658 15975 c-1 -1 -64 -6 -138 -9 -74 -4 -146 -9 -160 -10 -14 -2
-63 -7 -110 -10 -47 -4 -98 -9 -115 -11 -16 -2 -55 -7 -85 -10 -30 -3 -66 -7
-80 -9 -14 -3 -47 -7 -75 -11 -47 -6 -258 -39 -317 -50 -16 -3 -40 -7 -55 -10
-16 -2 -39 -7 -53 -10 -14 -2 -36 -7 -50 -9 -14 -2 -47 -10 -75 -16 -27 -7
-63 -14 -80 -17 -54 -9 -413 -101 -538 -139 -488 -146 -860 -293 -1309 -517
-154 -77 -242 -123 -423 -226 -313 -178 -783 -503 -1060 -732 -38 -32 -170
-144 -181 -154 -6 -5 -39 -35 -74 -65 -84 -73 -231 -213 -349 -331 -260 -261
-499 -535 -721 -829 -185 -244 -457 -659 -605 -925 -130 -233 -333 -661 -430
-905 -20 -52 -41 -104 -46 -115 -5 -11 -16 -40 -25 -65 -95 -267 -131 -376
-169 -509 -25 -86 -52 -178 -60 -206 -48 -166 -147 -626 -175 -820 -7 -44 -14
-88 -16 -99 -2 -10 -6 -44 -9 -75 -4 -31 -8 -63 -10 -71 -2 -8 -7 -46 -11 -85
-3 -38 -8 -77 -9 -85 -1 -8 -6 -51 -10 -95 -3 -44 -8 -100 -10 -125 -27 -297
-27 -1053 -1 -1255 3 -16 7 -66 10 -110 4 -44 8 -98 11 -120 16 -134 27 -223
30 -245 3 -14 11 -72 20 -130 39 -267 120 -638 201 -930 69 -246 218 -685 286
-841 9 -18 49 -113 91 -209 132 -307 321 -668 494 -949 36 -58 72 -118 80
-132 7 -15 20 -32 28 -39 8 -7 15 -16 15 -21 0 -19 298 -436 439 -613 73 -92
194 -237 242 -291 398 -443 786 -807 1165 -1092 206 -155 491 -355 569 -399
11 -6 58 -35 104 -63 46 -29 100 -62 120 -74 631 -364 1207 -612 1849 -796
118 -34 344 -93 407 -106 11 -3 31 -7 45 -10 14 -3 34 -7 45 -10 11 -2 63 -13
116 -24 97 -21 358 -67 426 -76 49 -6 123 -16 149 -20 11 -2 52 -6 90 -10 38
-4 77 -9 86 -11 9 -1 57 -6 105 -9 48 -4 102 -9 118 -11 248 -30 1033 -24
1368 10 31 3 83 8 115 11 31 3 91 10 132 15 42 6 93 13 115 15 21 3 50 7 64
10 14 2 85 14 156 25 72 12 160 28 197 36 37 7 82 16 100 19 18 3 62 13 98 21
36 9 76 18 90 20 27 5 137 33 260 65 989 263 1944 732 2763 1357 67 51 131
101 142 110 11 9 43 35 70 57 330 263 716 639 1025 1000 135 158 330 405 410
521 38 54 140 200 147 209 16 20 151 232 210 330 232 384 433 786 577 1155 21
52 42 104 47 115 22 49 138 378 145 410 2 11 8 31 13 45 9 25 40 128 80 265
23 79 78 297 84 335 3 14 10 43 16 65 20 75 91 461 105 575 4 25 8 56 10 70 8
48 18 125 22 160 2 19 6 58 9 85 3 28 8 79 11 115 3 36 7 85 9 110 27 281 27
1012 1 1260 -2 19 -7 69 -10 110 -4 41 -9 89 -11 105 -2 17 -7 57 -10 90 -3
33 -7 71 -10 85 -2 14 -7 48 -10 75 -3 28 -7 57 -10 65 -2 8 -6 38 -9 65 -3
28 -15 100 -26 160 -11 61 -22 124 -25 140 -14 76 -49 232 -81 365 -20 80 -37
152 -39 160 -26 132 -245 788 -315 945 -5 11 -30 70 -55 130 -71 166 -70 164
-186 400 -130 265 -183 363 -302 560 -442 737 -960 1359 -1608 1930 -227 201
-593 481 -824 631 -33 21 -64 43 -70 47 -42 33 -386 239 -535 321 -82 46 -459
233 -550 274 -349 156 -733 297 -1085 396 -71 20 -143 40 -160 45 -25 8 -315
76 -365 86 -8 2 -49 10 -90 18 -78 17 -84 18 -190 37 -106 19 -113 20 -160 26
-25 3 -70 9 -100 14 -30 5 -80 12 -110 15 -30 3 -66 8 -80 10 -14 2 -54 7 -90
10 -36 3 -81 8 -100 10 -19 2 -71 7 -115 10 -44 4 -100 9 -125 11 -56 5 -837
14 -842 9z"/>
</g>
</svg>
